<svg xmlns="http://www.w3.org/2000/svg" data-name="Layer 1" viewBox="0 0 100 100" width="100" height="100" class="pdp-svg-icon"><defs><clipPath id="PdpIcon_google-logo_svg__a"><path d="M0 0h100v100H0z" style="fill: none;"/></clipPath></defs><g style="clip-path: url(&quot;#PdpIcon_google-logo_svg__a&quot;);"><path d="M99 51.15A58.7 58.7 0 0 0 98.16 41H51v19.25h27a23.1 23.1 0 0 1-10 15.19v12.49h16.13C93.59 79.22 99 66.36 99 51.15" style="fill: rgb(66, 133, 244);"/><path d="M51 100c13.49 0 24.86-4.42 33.14-12.07L68 75.44a29.9 29.9 0 0 1-17 4.78c-13 0-24.09-8.8-28-20.64H6.32v12.88A50 50 0 0 0 51 100" style="fill: rgb(52, 168, 83);"/><path d="M22.93 59.58a29.86 29.86 0 0 1 0-19.14V27.56H6.32a50 50 0 0 0 0 44.9Z" style="fill: rgb(251, 188, 4);"/><path d="M51 19.79a27.14 27.14 0 0 1 19.18 7.5L84.46 13A48.1 48.1 0 0 0 51 0 50 50 0 0 0 6.32 27.56l16.61 12.88C26.88 28.59 38 19.79 51 19.79" style="fill: rgb(234, 67, 53);"/></g></svg>